<svg xmlns="http://www.w3.org/2000/svg" xmlns:xlink="http://www.w3.org/1999/xlink" width="143" height="109" viewBox="0 0 143 109">
  <defs>
    <clipPath id="clip-envelop">
      <rect width="143" height="109"/>
    </clipPath>
  </defs>
  <g id="envelop" clip-path="url(#clip-envelop)">
    <g id="envelope" transform="translate(2.513 2.102)">
      <g id="Group_115" data-name="Group 115" transform="translate(0 0)">
        <g id="Group_114" data-name="Group 114">
          <path id="Path_339" data-name="Path 339" d="M7.925,72.351c18.835,15.951,51.885,44.015,61.6,52.765a5.738,5.738,0,0,0,8.3.011c9.722-8.759,42.772-36.825,61.607-52.776a2.857,2.857,0,0,0,.4-3.945A11.354,11.354,0,0,0,130.861,64H16.5a11.353,11.353,0,0,0-8.974,4.406A2.857,2.857,0,0,0,7.925,72.351Z" transform="translate(-5.061 -64)" fill="none" stroke="#338935" stroke-width="1"/>
          <path id="Path_340" data-name="Path 340" d="M383.232,126.678a2.846,2.846,0,0,0-3.049.413c-12.335,10.456-28.588,24.272-40.845,34.814a2.857,2.857,0,0,0,.078,4.4c11.389,9.122,28.552,21.669,40.946,30.587a2.859,2.859,0,0,0,4.529-2.32v-65.3A2.858,2.858,0,0,0,383.232,126.678Z" transform="translate(-247.654 -109.683)" fill="none" stroke="#338935" stroke-width="1"/>
          <path id="Path_341" data-name="Path 341" d="M4.529,196.9c12.4-8.918,29.563-21.465,40.949-30.587a2.857,2.857,0,0,0,.078-4.4C33.3,151.37,17.043,137.554,4.708,127.1A2.859,2.859,0,0,0,0,129.279v65.3a2.858,2.858,0,0,0,4.529,2.32Z" transform="translate(0 -109.689)" fill="none" stroke="#338935" stroke-width="1"/>
          <path id="Path_342" data-name="Path 342" d="M140.045,320.468c-11.97-8.563-34.019-24.528-47.181-35.211a2.866,2.866,0,0,0-3.68.064c-2.583,2.253-4.744,4.152-6.277,5.531a11.578,11.578,0,0,1-15.96-.006c-1.527-1.377-3.688-3.281-6.271-5.526A2.848,2.848,0,0,0,57,285.257C43.882,295.9,21.808,311.888,9.819,320.468a2.859,2.859,0,0,0-.43,4.272,11.456,11.456,0,0,0,8.36,3.669H132.112a11.471,11.471,0,0,0,8.362-3.669,2.859,2.859,0,0,0-.43-4.272Z" transform="translate(-6.312 -225.482)" fill="none" stroke="#338935" stroke-width="1"/>
        </g>
      </g>
    </g>
  </g>
</svg>
